<svg width="18" height="20" viewBox="0 0 18 20" fill="none" xmlns="http://www.w3.org/2000/svg">
<path d="M6.09398 19.006C5.4652 18.9719 4.87352 18.6977 4.44098 18.24C3.92358 17.7422 3.46186 17.1897 3.06398 16.592C2.44247 15.702 1.95118 14.7279 1.60498 13.699C1.21284 12.5922 1.00639 11.4282 0.993981 10.254C0.963848 9.10189 1.24949 7.96346 1.81998 6.96202C2.23755 6.24012 2.83317 5.63728 3.54998 5.21102C4.25887 4.78659 5.0678 4.55813 5.89398 4.54902C6.5168 4.58587 7.12883 4.72823 7.70398 4.97002C8.16254 5.17178 8.64518 5.31362 9.13998 5.39202C9.686 5.27763 10.2195 5.11017 10.733 4.89202C11.3406 4.65474 11.984 4.52187 12.636 4.49902C12.723 4.49902 12.809 4.49902 12.892 4.50902C14.3215 4.55048 15.6511 5.25221 16.492 6.40902C15.155 7.12387 14.334 8.5303 14.369 10.046C14.3558 11.1956 14.8351 12.2959 15.686 13.069C16.0689 13.4339 16.5148 13.7262 17.002 13.932C16.902 14.232 16.787 14.522 16.665 14.814C16.3877 15.4593 16.0456 16.0748 15.644 16.651C15.2648 17.2282 14.8235 17.7621 14.328 18.243C13.8756 18.6919 13.2726 18.9567 12.636 18.986C12.0963 18.9621 11.5662 18.8355 11.074 18.613C10.5432 18.3818 9.97276 18.2551 9.39398 18.24C8.79887 18.2517 8.21155 18.3777 7.66398 18.611C7.19103 18.8244 6.68573 18.9572 6.16898 19.004L6.09398 19.006ZM9.24398 4.49902C9.16898 4.49902 9.09398 4.49902 9.01898 4.49002C9.0032 4.37099 8.99485 4.25109 8.99398 4.13102C9.02669 3.13216 9.41705 2.17826 10.094 1.44302C10.4723 1.0206 10.9309 0.677622 11.443 0.434023C11.9208 0.188025 12.4431 0.0401219 12.979 -0.000976562C12.994 0.130023 12.994 0.258023 12.994 0.380023C12.9798 1.36317 12.6104 2.308 11.954 3.04002C11.3105 3.9028 10.3185 4.43689 9.24398 4.49902Z" fill="white"/>
</svg>
